<?xml version="1.0" encoding="UTF-8" standalone="no"?>
<!-- Created with Inkscape (http://www.inkscape.org/) -->

<svg
   xmlns:dc="http://purl.org/dc/elements/1.1/"
   xmlns:cc="http://creativecommons.org/ns#"
   xmlns:rdf="http://www.w3.org/1999/02/22-rdf-syntax-ns#"
   xmlns:svg="http://www.w3.org/2000/svg"
   xmlns="http://www.w3.org/2000/svg"
   xmlns:sodipodi="http://sodipodi.sourceforge.net/DTD/sodipodi-0.dtd"
   xmlns:inkscape="http://www.inkscape.org/namespaces/inkscape"
   width="400"
   height="300"
   viewBox="0 0 400 300"
   id="svg2"
   version="1.1"
   inkscape:version="0.48.5 r10040"
   sodipodi:docname="pipe_4.svg">
  <defs
     id="defs4" />
  <sodipodi:namedview
     id="base"
     pagecolor="#ffffff"
     bordercolor="#666666"
     borderopacity="1.0"
     inkscape:pageopacity="0.0"
     inkscape:pageshadow="2"
     inkscape:zoom="0.45254834"
     inkscape:cx="79.788201"
     inkscape:cy="157.39616"
     inkscape:document-units="px"
     inkscape:current-layer="layer1"
     showgrid="false"
     units="px"
     showborder="true"
     inkscape:window-width="463"
     inkscape:window-height="423"
     inkscape:window-x="130"
     inkscape:window-y="130"
     inkscape:window-maximized="0" />
  <metadata
     id="metadata7">
    <rdf:RDF>
      <cc:Work
         rdf:about="">
        <dc:format>image/svg+xml</dc:format>
        <dc:type
           rdf:resource="http://purl.org/dc/dcmitype/StillImage" />
        <dc:title />
      </cc:Work>
    </rdf:RDF>
  </metadata>
  <g
     inkscape:label="Layer 1"
     inkscape:groupmode="layer"
     id="layer1"
     transform="translate(0,-752.36216)">
    <path
       style="fill:#555a74;fill-opacity:1;stroke:#000000;stroke-width:1;stroke-opacity:1"
       d="m 104.4375,889.29184 a 11.67748,13.328188 79.982367 0 0 -13.28125,12.25196 11.67748,13.328188 79.982367 0 0 3.91016,8.13671 l -0.15821,0.16993 0.93164,0.43359 a 11.67748,13.328188 79.982367 0 0 4.13086,1.92773 l 88.75782,41.39454 a 11.67748,13.328188 79.982367 0 0 8.24023,2.21289 11.67748,13.328188 79.982367 0 0 13.28125,-12.25 11.67748,13.328188 79.982367 0 0 -5.70117,-9.39063 l 0.0156,-0.0215 -0.53906,-0.25 a 11.67748,13.328188 79.982367 0 0 -0.98633,-0.46094 l -90.73047,-42.24024 -0.0391,0.043 a 11.67748,13.328188 79.982367 0 0 -7.83203,-1.95703 z"
       id="path4268-5"
       inkscape:connector-curvature="0" />
    <ellipse
       style="fill:#555a74;fill-opacity:1;stroke:#000000;stroke-width:1.0004015;stroke-opacity:1"
       id="path4268-0"
       cx="197.22858"
       cy="952.26099"
       rx="13.291916"
       ry="11.71875"
       transform="matrix(0.99919755,-0.04005325,0,1,0,0)"
       d="m 210.52049,952.26099 c 0,6.47208 -5.95099,11.71875 -13.29191,11.71875 -7.34093,0 -13.29192,-5.24667 -13.29192,-11.71875 0,-6.47209 5.95099,-11.71875 13.29192,-11.71875 7.34092,0 13.29191,5.24666 13.29191,11.71875 z" />
  </g>
</svg>
