<?xml version="1.0" encoding="UTF-8" standalone="no"?>
<!-- Created with Inkscape (http://www.inkscape.org/) -->

<svg
   xmlns:dc="http://purl.org/dc/elements/1.1/"
   xmlns:cc="http://creativecommons.org/ns#"
   xmlns:rdf="http://www.w3.org/1999/02/22-rdf-syntax-ns#"
   xmlns:svg="http://www.w3.org/2000/svg"
   xmlns="http://www.w3.org/2000/svg"
   xmlns:sodipodi="http://sodipodi.sourceforge.net/DTD/sodipodi-0.dtd"
   xmlns:inkscape="http://www.inkscape.org/namespaces/inkscape"
   width="400"
   height="300"
   viewBox="0 0 400 300"
   id="svg2"
   version="1.1"
   inkscape:version="0.48.5 r10040"
   sodipodi:docname="pipe_3.svg">
  <defs
     id="defs4" />
  <sodipodi:namedview
     id="base"
     pagecolor="#ffffff"
     bordercolor="#666666"
     borderopacity="1.0"
     inkscape:pageopacity="0.0"
     inkscape:pageshadow="2"
     inkscape:zoom="1.8101934"
     inkscape:cx="166.19674"
     inkscape:cy="37.835607"
     inkscape:document-units="px"
     inkscape:current-layer="layer1"
     showgrid="false"
     units="px"
     showborder="true"
     inkscape:window-width="463"
     inkscape:window-height="423"
     inkscape:window-x="1197"
     inkscape:window-y="144"
     inkscape:window-maximized="0" />
  <metadata
     id="metadata7">
    <rdf:RDF>
      <cc:Work
         rdf:about="">
        <dc:format>image/svg+xml</dc:format>
        <dc:type
           rdf:resource="http://purl.org/dc/dcmitype/StillImage" />
        <dc:title />
      </cc:Work>
    </rdf:RDF>
  </metadata>
  <g
     inkscape:label="Layer 1"
     inkscape:groupmode="layer"
     id="layer1"
     transform="translate(0,-752.36216)">
    <path
       style="fill:#555a74;fill-opacity:1;stroke:#000000;stroke-width:0.91909379;stroke-opacity:1"
       d="m 209.03908,934.36267 a 12.988982,11.183778 0 0 0 -8.0918,2.4375 l -96.75,48.94726 a 12.988982,11.183778 0 0 0 -1.39453,0.70313 l -0.99023,0.50195 0.0625,0.0801 a 12.988982,11.183778 0 0 0 -4.847659,8.70898 12.988982,11.183778 0 0 0 12.988279,11.18363 12.988982,11.183778 0 0 0 8.13672,-2.4707 l 96.62891,-48.88285 a 12.988982,11.183778 0 0 0 7.24609,-10.02539 12.988982,11.183778 0 0 0 -12.98828,-11.18359 z"
       id="path4155-6-6"
       inkscape:connector-curvature="0" />
    <ellipse
       style="fill:#555a74;fill-opacity:1;stroke:#000000;stroke-width:0.91909379;stroke-opacity:1"
       id="path4155-6-6-2"
       cx="109.65853"
       cy="995.77509"
       rx="12.988982"
       ry="11.183778"
       d="m 122.64751,995.77509 c 0,6.17661 -5.81536,11.18381 -12.98898,11.18381 -7.17362,0 -12.988981,-5.0072 -12.988981,-11.18381 0,-6.17663 5.815361,-11.18378 12.988981,-11.18378 7.17362,0 12.98898,5.00715 12.98898,11.18378 z" />
  </g>
</svg>
