<?xml version="1.0" encoding="UTF-8" standalone="no"?>
<!-- Created with Inkscape (http://www.inkscape.org/) -->

<svg
   xmlns:dc="http://purl.org/dc/elements/1.1/"
   xmlns:cc="http://creativecommons.org/ns#"
   xmlns:rdf="http://www.w3.org/1999/02/22-rdf-syntax-ns#"
   xmlns:svg="http://www.w3.org/2000/svg"
   xmlns="http://www.w3.org/2000/svg"
   xmlns:sodipodi="http://sodipodi.sourceforge.net/DTD/sodipodi-0.dtd"
   xmlns:inkscape="http://www.inkscape.org/namespaces/inkscape"
   width="400"
   height="300"
   viewBox="0 0 400 300"
   id="svg2"
   version="1.1"
   inkscape:version="0.48.5 r10040"
   sodipodi:docname="pipe_124.svg">
  <defs
     id="defs4" />
  <sodipodi:namedview
     id="base"
     pagecolor="#ffffff"
     bordercolor="#666666"
     borderopacity="1.0"
     inkscape:pageopacity="0.0"
     inkscape:pageshadow="2"
     inkscape:zoom="1.8101934"
     inkscape:cx="197.16859"
     inkscape:cy="116.08809"
     inkscape:document-units="px"
     inkscape:current-layer="layer1"
     showgrid="false"
     units="px"
     showborder="true"
     inkscape:window-width="1920"
     inkscape:window-height="1017"
     inkscape:window-x="-8"
     inkscape:window-y="-8"
     inkscape:window-maximized="1" />
  <metadata
     id="metadata7">
    <rdf:RDF>
      <cc:Work
         rdf:about="">
        <dc:format>image/svg+xml</dc:format>
        <dc:type
           rdf:resource="http://purl.org/dc/dcmitype/StillImage" />
        <dc:title />
      </cc:Work>
    </rdf:RDF>
  </metadata>
  <g
     inkscape:label="Layer 1"
     inkscape:groupmode="layer"
     id="layer1"
     transform="translate(0,-752.36216)">
    <path
       style="fill:#555a74;fill-opacity:1;stroke:#000000;stroke-width:1;stroke-opacity:1"
       d="m 98.581853,890.24303 c -8.673581,-0.30585 -16.909553,9.84808 -11.649782,17.80355 3.174136,4.94643 9.806502,5.73816 14.664519,8.82186 31.41301,15.48067 62.94352,31.04167 94.26651,46.47417 15.0924,6.661 30.3777,14.1137 45.54429,21.0792 14.70741,6.8543 29.43436,13.7341 44.12437,20.57999 8.93964,3.3063 20.93677,-5.24289 17.48503,-15.08269 -2.79406,-7.0524 -11.05178,-8.0778 -16.97042,-11.5042 -30.48461,-14.3079 -61.2218,-28.2698 -91.5258,-42.7864 -29.0603,-14.4156 -58.1206,-28.8312 -87.1809,-43.24681 -2.38245,-0.82689 -5.70239,-2.55023 -8.757817,-2.13867 z"
       id="path4268-5"
       inkscape:connector-curvature="0" />
    <ellipse
       style="fill:#555a74;fill-opacity:1;stroke:#000000;stroke-width:1.0004015;stroke-opacity:1"
       id="path4268-0"
       cx="291.14612"
       cy="1005.6633"
       rx="13.291916"
       ry="11.71875"
       transform="matrix(0.99919755,-0.04005325,0,1,0,0)"
       d="m 304.43803,1005.6633 c 0,6.4721 -5.95099,11.7188 -13.29191,11.7188 -7.34092,0 -13.29192,-5.2467 -13.29192,-11.7188 0,-6.47206 5.951,-11.71872 13.29192,-11.71872 7.34092,0 13.29191,5.24666 13.29191,11.71872 z" />
    <path
       inkscape:connector-curvature="0"
       style="fill:#555a74;fill-opacity:1;stroke:#000000;stroke-width:0.91909379;stroke-opacity:1"
       d="m 299.76122,888.47023 a 12.988982,11.183778 0 0 0 -8.0918,2.4375 l -96.75,48.94723 a 12.988982,11.183778 0 0 0 -1.39453,0.7032 l -0.99023,0.5019 0.0625,0.08 a 12.988982,11.183778 0 0 0 -4.84766,8.709 12.988982,11.183778 0 0 0 12.98828,11.1836 12.988982,11.183778 0 0 0 8.13672,-2.4707 l 96.62891,-48.8828 a 12.988982,11.183778 0 0 0 7.24609,-10.0254 12.988982,11.183778 0 0 0 -12.98828,-11.18363 z"
       id="path4155-6-6" />
    <path
       style="fill:#151a41;fill-rule:evenodd;stroke:#000000;stroke-width:1px;stroke-linecap:butt;stroke-linejoin:miter;stroke-opacity:1;fill-opacity:1"
       d="m 158.20312,946.89341 59.375,29.88281 c 4.56655,-14.67828 13.79975,-20.33437 26.17187,-19.92187 l -10.74218,-5.27344 c -1.80176,-0.72143 -3.09008,-1.57123 -0.78125,-3.32031 l 14.25781,-7.03125 c -0.0943,-10.7369 -5.10624,-18.45975 -21.28906,-19.33594 l -20.89844,11.52344 c -2.79948,1.18053 -5.59896,2.33987 -8.39844,0.97656 l -17.57812,-9.57031 c -12.15684,0.77002 -20.41914,6.24593 -20.11719,22.07031 z"
       id="path5282"
       inkscape:connector-curvature="0"
       sodipodi:nodetypes="ccccccccccc" />
  </g>
</svg>
