<?xml version="1.0" encoding="UTF-8" standalone="no"?>
<!-- Created with Inkscape (http://www.inkscape.org/) -->

<svg
   xmlns:dc="http://purl.org/dc/elements/1.1/"
   xmlns:cc="http://creativecommons.org/ns#"
   xmlns:rdf="http://www.w3.org/1999/02/22-rdf-syntax-ns#"
   xmlns:svg="http://www.w3.org/2000/svg"
   xmlns="http://www.w3.org/2000/svg"
   xmlns:sodipodi="http://sodipodi.sourceforge.net/DTD/sodipodi-0.dtd"
   xmlns:inkscape="http://www.inkscape.org/namespaces/inkscape"
   width="400"
   height="300"
   viewBox="0 0 400 300"
   id="svg2"
   version="1.1"
   inkscape:version="0.48.5 r10040"
   sodipodi:docname="pipe_123.svg">
  <defs
     id="defs4" />
  <sodipodi:namedview
     id="base"
     pagecolor="#ffffff"
     bordercolor="#666666"
     borderopacity="1.0"
     inkscape:pageopacity="0.0"
     inkscape:pageshadow="2"
     inkscape:zoom="1.8101934"
     inkscape:cx="267.27725"
     inkscape:cy="86.182328"
     inkscape:document-units="px"
     inkscape:current-layer="layer1"
     showgrid="false"
     units="px"
     showborder="true"
     inkscape:window-width="1920"
     inkscape:window-height="1017"
     inkscape:window-x="-8"
     inkscape:window-y="-8"
     inkscape:window-maximized="1" />
  <metadata
     id="metadata7">
    <rdf:RDF>
      <cc:Work
         rdf:about="">
        <dc:format>image/svg+xml</dc:format>
        <dc:type
           rdf:resource="http://purl.org/dc/dcmitype/StillImage" />
        <dc:title />
      </cc:Work>
    </rdf:RDF>
  </metadata>
  <g
     inkscape:label="Layer 1"
     inkscape:groupmode="layer"
     id="layer1"
     transform="translate(0,-752.36216)">
    <path
       style="fill:#555a74;fill-opacity:1;stroke:#000000;stroke-width:0.91909379;stroke-opacity:1"
       d="m 296.875,889.61607 c -6.82487,0.39916 -12.31723,5.11125 -18.46949,7.68773 -29.58573,14.96701 -59.17102,29.93725 -88.75707,44.90211 -5.21466,3.77057 -11.78291,6.30865 -17.53953,9.58234 -22.66,11.76748 -45.32,23.53495 -67.98,35.30243 -5.86287,3.74691 -6.461283,13.85042 0.1846,17.60622 5.66949,4.071 13.15531,2.5049 18.44649,-1.3283 35.77662,-18.54314 71.55323,-37.08632 107.32984,-55.62949 2.49482,-1.78544 6.63858,-3.43189 9.76573,-5.16403 21.64379,-10.99498 43.36956,-21.84808 64.96173,-32.93236 7.0599,-3.91419 6.36552,-15.00221 -0.92521,-18.2538 -2.13595,-1.18065 -4.58089,-1.77308 -7.01709,-1.77285 z"
       id="path4155-6-6"
       inkscape:connector-curvature="0" />
    <ellipse
       style="fill:#555a74;fill-opacity:1;stroke:#000000;stroke-width:0.91909379;stroke-opacity:1"
       id="path4155-6-6-1"
       cx="112.30469"
       cy="996.11218"
       rx="12.988982"
       ry="11.183778"
       d="m 125.29367,996.11218 c 0,6.17662 -5.81537,11.18382 -12.98898,11.18382 -7.17362,0 -12.988985,-5.0072 -12.988985,-11.18382 0,-6.17663 5.815365,-11.18378 12.988985,-11.18378 7.17361,0 12.98898,5.00715 12.98898,11.18378 z" />
    <path
       inkscape:connector-curvature="0"
       style="fill:#555a74;fill-opacity:1;stroke:#000000;stroke-width:1;stroke-opacity:1"
       d="m 197.63097,939.27271 a 11.67748,13.328188 79.982367 0 0 -13.28125,12.2519 11.67748,13.328188 79.982367 0 0 3.91016,8.1367 l -0.15821,0.17 0.93164,0.4335 a 11.67748,13.328188 79.982367 0 0 4.13086,1.9278 l 88.75782,41.39459 a 11.67748,13.328188 79.982367 0 0 8.24023,2.2129 11.67748,13.328188 79.982367 0 0 13.28125,-12.25009 11.67748,13.328188 79.982367 0 0 -5.70117,-9.3906 l 0.0156,-0.022 -0.53906,-0.25 a 11.67748,13.328188 79.982367 0 0 -0.98633,-0.461 l -90.73047,-42.2402 -0.0391,0.043 a 11.67748,13.328188 79.982367 0 0 -7.83203,-1.957 z"
       id="path4268-5" />
    <path
       style="fill:#000932;fill-rule:evenodd;stroke:#000000;stroke-width:1px;stroke-linecap:butt;stroke-linejoin:miter;stroke-opacity:1;fill-opacity:1"
       d="m 156.33689,957.89711 61.73374,-32.17888 c 9.97909,-2.77874 24.21898,-0.42266 22.5114,18.3682 l -7.45776,4.14321 c -2.02425,1.10485 -2.57243,2.20971 -0.55243,3.31456 l 20.16359,10.08179 c -11.90287,0.85644 -20.12196,4.98628 -18.50631,22.64952 l -30.65971,-15.05364 c -2.69861,-1.23823 -4.96955,-3.06451 -10.49611,-0.41432 l -18.09199,10.0818 c 0.24917,-10.2294 -1.46938,-19.47494 -18.64442,-20.99224 z"
       id="path5362"
       inkscape:connector-curvature="0"
       sodipodi:nodetypes="ccccccccccc" />
    <ellipse
       style="fill:#555a74;fill-opacity:1;stroke:#000000;stroke-width:1.0004015;stroke-opacity:1"
       id="path4268-0"
       cx="290.78424"
       cy="1005.8969"
       rx="13.291916"
       ry="11.71875"
       transform="matrix(0.99919755,-0.04005325,0,1,0,0)"
       d="m 304.07616,1005.8969 c 0,6.4721 -5.951,11.7188 -13.29192,11.7188 -7.34092,0 -13.29192,-5.2467 -13.29192,-11.7188 0,-6.47208 5.951,-11.71874 13.29192,-11.71874 7.34092,0 13.29192,5.24666 13.29192,11.71874 z" />
  </g>
</svg>
